<?xml version="1.0" encoding="UTF-8"?>
<svg width="295px" height="101px" viewBox="0 0 295 101" version="1.1" xmlns="http://www.w3.org/2000/svg" xmlns:xlink="http://www.w3.org/1999/xlink">
    <!-- Generator: Sketch 51.2 (57519) - http://www.bohemiancoding.com/sketch -->
    <title>Logo</title>
    <desc>Created with Sketch.</desc>
    <defs></defs>
    <g id="1.-Symbols" stroke="none" stroke-width="1" fill="none" fill-rule="evenodd">
        <g id="System/Menu-footer" transform="translate(-575.000000, -139.000000)" fill="#FFFF00">
            <g id="Logo" transform="translate(722.500000, 189.500000) rotate(-360.000000) translate(-722.500000, -189.500000) translate(575.000000, 139.000000)">
                <path d="M233.936403,10.24948 C233.630077,9.31969459 232.332699,8.84856172 230.084544,8.84856172 C227.963584,8.84856172 225.623215,9.11584902 223.143992,9.39561666 C220.304385,9.71594541 217.365144,10.0518746 214.324147,10.0518746 L166.5151,9.32905484 C162.26046,9.32905484 159.359377,9.75858658 158.301547,11.7075998 L145.50053,0 L132.699513,11.7096799 C131.645923,9.76066663 128.7406,9.32905484 124.48596,9.32905484 L76.6769129,10.0518746 C73.6348562,10.0518746 70.6966746,9.71594541 67.8570684,9.39561666 C65.3789052,9.11584902 63.0374755,8.84856172 60.9165155,8.84856172 C58.6683614,8.84856172 57.3709825,9.31969459 57.063597,10.24948 C57.021199,10.3774035 57,10.5094871 57,10.6436508 C57,11.5255948 57.8935379,12.5489828 59.5724988,13.5734108 C62.5085604,15.3612196 65.1457162,16.1162802 67.4309685,16.6539749 C67.3959902,16.8640607 67.3419327,17.0720664 67.3419327,17.2883923 C67.3419327,17.8063264 67.4723066,18.3346608 67.8634281,18.8609152 C69.1502075,20.5873624 73.1313799,21.855157 80.7089629,22.9648673 C81.1753409,26.5248846 87.2064567,27.08962 95.1317033,27.3350667 C95.2101396,27.8009994 95.4009306,28.2190909 95.7888723,28.5466998 C97.8303361,30.2700269 103.934589,29.4972858 109.323375,28.8129471 C109.323375,28.8129471 112.131182,28.4946984 113.094677,28.3865354 C113.121176,28.5997413 113.182653,28.7963066 113.280168,28.9263102 C114.203385,30.1327431 117.979987,29.9756988 120.043709,29.7957739 C120.157124,31.4691796 121.035823,32.1119172 125.897814,32.1483182 C126.371611,33.9995688 129.58114,34.0754908 133.355622,34.0775709 C133.425579,34.2543757 133.428759,34.4707016 133.572912,34.5975851 C134.229021,35.181041 135.435244,35.1488002 137.628281,35.0874385 L139.001976,35.0562376 L145.50053,41 L152.000144,35.0562376 L153.372779,35.0874385 C155.563696,35.1488002 156.770979,35.181041 157.427088,34.5975851 C157.571241,34.4707016 157.574421,34.2543757 157.645438,34.0775709 C161.41886,34.0754908 164.629449,33.9995688 165.103246,32.1483182 C169.964177,32.1119172 170.842876,31.4691796 170.956291,29.7957739 C173.020013,29.9756988 176.797675,30.1327431 177.718772,28.9263102 C177.817347,28.7963066 177.877764,28.5997413 177.905323,28.3865354 C178.868818,28.4946984 181.676625,28.8129471 181.676625,28.8129471 C187.065411,29.4962458 193.171784,30.2700269 195.211128,28.5466998 C195.599069,28.2190909 195.78986,27.8009994 195.866177,27.3350667 C203.793543,27.08962 209.825719,26.5248846 210.292097,22.9648673 C217.87074,21.855157 221.849793,20.5873624 223.136572,18.8588352 C223.527693,18.3346608 223.658067,17.8063264 223.658067,17.2883923 C223.658067,17.0731064 223.60507,16.8640607 223.569031,16.6539749 C225.855344,16.1162802 228.49144,15.3612196 231.427501,13.5734108 C233.106462,12.5489828 234,11.5255948 234,10.6436508 C234,10.5094871 233.979861,10.3774035 233.936403,10.24948 M137.595422,34.1264522 C135.94508,34.1732535 134.641342,34.2065344 134.304278,33.9080463 C134.278839,33.8841256 134.205702,33.8196439 134.205702,33.5991578 L134.205702,33.1186647 L133.678907,33.1186647 C130.168352,33.1186647 126.848589,33.1186647 126.848589,31.6751053 L126.848589,31.1956522 L126.324974,31.1956522 C121.070801,31.1956522 121.070801,30.7109989 121.070801,29.2736797 L121.070801,28.734945 L120.486769,28.7952666 C117.298439,29.1197555 114.571187,28.9377505 114.142968,28.3740551 C114.119649,28.3438943 114.062411,28.2710923 114.186425,28.0474862 L114.624185,27.2435442 L109.178161,27.8602811 C104.53558,28.4520572 98.1779997,29.2549592 96.5032787,27.8426006 C96.2117924,27.5971539 96.0888382,27.2955456 96.113217,26.8992948 L96.1460755,26.4063213 L95.6076209,26.3896809 C87.9802203,26.1639947 81.6682177,25.7209426 81.6682177,22.5446959 L81.6682177,22.1349247 L81.2240986,22.0704429 C73.9189228,21.0220943 69.8317554,19.7948607 68.7336471,18.3180204 C68.3064873,17.7480848 68.3361659,17.1625488 68.5205972,16.4022881 L68.6329519,15.9457156 L68.1358353,15.8313125 C65.8378636,15.3060981 63.1381708,14.5936787 60.1565313,12.774669 C58.528448,11.7814418 57.9348759,10.9327787 58.0684297,10.5271676 C58.1839642,10.1808381 58.9927061,9.80954797 60.9165155,9.80954797 C62.9728186,9.80954797 65.2824497,10.0726752 67.7288145,10.3482827 C70.5991592,10.6748516 73.5691393,11.0118208 76.6769129,11.0118208 L124.48596,10.2910811 C129.888526,10.2910811 131.418034,11.1127036 131.898191,12.4408198 C131.461491,12.8401908 123.090006,20.49896 123.090006,20.49896 L137.978064,34.118132 C137.839211,34.1212521 137.595422,34.1264522 137.595422,34.1264522 M145.50053,39.6406829 C144.795663,38.9958653 125.281983,21.1427376 124.576056,20.49896 C125.281983,19.8541424 144.795663,2.00413475 145.50053,1.35931713 C146.205397,2.00413475 165.722257,19.8541424 166.427124,20.49896 C165.722257,21.1427376 146.205397,38.9958653 145.50053,39.6406829 M230.843469,12.774669 C227.861829,14.5936787 225.160017,15.3060981 222.864165,15.8313125 L222.367048,15.9457156 L222.479403,16.4022881 C222.663834,17.1625488 222.693513,17.7480848 222.267413,18.3180204 C221.168245,19.7948607 217.083197,21.0220943 209.778021,22.0704429 L209.333902,22.1349247 L209.333902,22.5446959 C209.333902,25.7209426 203.01978,26.1639947 195.392379,26.3896809 L194.851805,26.4063213 L194.884663,26.8992948 C194.911162,27.2955456 194.787148,27.5971539 194.496721,27.8426006 C192.82306,29.2549592 186.46548,28.4520572 181.821839,27.8602811 L176.355676,27.2414642 L176.814634,28.0474862 C176.936529,28.2710923 176.880351,28.3438943 176.857032,28.3740551 C176.426693,28.9377505 173.700501,29.1197555 170.513231,28.7952666 L169.931319,28.734945 L169.931319,29.2736797 C169.931319,30.7109989 169.931319,31.1956522 164.678206,31.1956522 L164.152471,31.1956522 L164.152471,31.6751053 C164.152471,33.1186647 160.833767,33.1186647 157.320033,33.1186647 L156.794298,33.1186647 L156.794298,33.5991578 C156.794298,33.8196439 156.721161,33.8851656 156.694663,33.9101263 C156.356538,34.2086145 155.05492,34.1732535 153.403518,34.1264522 C153.403518,34.1264522 153.161849,34.1212521 153.024055,34.118132 L167.511453,20.86609 C167.766901,20.6341637 167.913174,20.49896 167.913174,20.49896 C167.913174,20.49896 167.713903,20.317995 167.401218,20.0309472 L159.100749,12.4408198 C159.583026,11.1106235 161.114654,10.2910811 166.5151,10.2910811 L214.324147,11.0118208 C217.430861,11.0118208 220.400841,10.6748516 223.272245,10.3482827 C225.71967,10.0726752 228.027181,9.80954797 230.084544,9.80954797 C232.008354,9.80954797 232.816036,10.1808381 232.93157,10.5271676 C233.065124,10.9327787 232.471552,11.7814418 230.843469,12.774669" id="Fill-1"></path>
                <path d="M138.966988,10 L138.966988,14.5336449 L134,14.5336449 L134,26.4653222 L138.966988,26.4653222 L138.966988,31 L152.033012,31 L152.033012,26.4653222 L157,26.4653222 L157,14.5336449 L152.033012,14.5336449 L152.033012,10 L138.966988,10 Z M150.988996,10.9534186 L150.988996,15.4891294 L155.954929,15.4891294 L155.954929,25.5119036 L150.988996,25.5119036 L150.988996,30.0465814 L140.012059,30.0465814 L140.012059,25.5119036 L135.046126,25.5119036 L135.046126,15.4891294 L140.012059,15.4891294 L140.012059,10.9534186 L150.988996,10.9534186 Z" id="Fill-3"></path>
                <path d="M0,71.8001933 L3.35993768,71.8001933 L3.35993768,48.19831 L0,48.19831 L0,71.8001933 Z M10.7721774,71.8001933 L14.1328587,71.8001933 L14.1328587,57.6131708 L14.1983024,57.6131708 L19.3378618,71.8001933 L22.4992374,71.8001933 L22.4992374,48.19831 L19.1392997,48.19831 L19.1392997,62.4197562 L19.0738561,62.4197562 L14.000484,48.19831 L10.7721774,48.19831 L10.7721774,71.8001933 Z M41.2101786,48.19831 L37.6531662,48.19831 L34.9513836,64.6737551 L34.8859399,64.6737551 L32.2176229,48.19831 L28.6598668,48.19831 L33.4365113,71.8001933 L36.4015559,71.8001933 L41.2101786,48.19831 Z M47.6020919,71.8001933 L50.9620296,71.8001933 L50.9620296,48.19831 L47.6020919,48.19831 L47.6020919,71.8001933 Z M58.3735256,71.8001933 L61.7342069,71.8001933 L61.7342069,57.6131708 L61.8003943,57.6131708 L66.93921,71.8001933 L70.1013293,71.8001933 L70.1013293,48.19831 L66.7413916,48.19831 L66.7413916,62.4197562 L66.6752043,62.4197562 L61.6018322,48.19831 L58.3735256,48.19831 L58.3735256,71.8001933 Z M88.087928,65.0718718 L84.7279903,65.0718718 L84.7279903,66.2317982 C84.7279903,66.6957688 84.6618029,67.0826603 84.5294282,67.3917246 C84.3992846,67.7022856 84.2282386,67.9447476 84.019265,68.1213557 C83.8102915,68.2987122 83.580495,68.4251816 83.3276444,68.5030089 C83.0747938,68.5808363 82.8383042,68.6190016 82.6196628,68.6190016 C81.8506997,68.6190016 81.3182262,68.386268 81.0214986,67.9230457 C80.7255147,67.4590752 80.5767791,66.8843503 80.5767791,66.1988713 L80.5767791,54.1326432 C80.5767791,53.3371582 80.7143595,52.6793677 80.9887768,52.1592716 C81.263194,51.6406723 81.8172342,51.3809984 82.651641,51.3809984 C83.2889731,51.3809984 83.7939306,51.6242088 84.1680007,52.1098812 C84.5405834,52.5970503 84.7279903,53.1702784 84.7279903,53.8340557 L84.7279903,54.9610552 L88.087928,54.9610552 L88.087928,53.6357457 C88.087928,52.8178105 87.9503475,52.0612391 87.6759303,51.3645349 C87.4015131,50.6678308 87.0222372,50.0714041 86.5395901,49.5745066 C86.0569431,49.0768607 85.4857983,48.6907175 84.8261558,48.4145802 C84.1680007,48.1384428 83.4540697,48 82.6858502,48 C81.87301,48 81.131563,48.1384428 80.461509,48.4145802 C79.791455,48.6907175 79.2143608,49.0723707 78.7317137,49.5580431 C78.2490666,50.0444638 77.8749965,50.6184403 77.6124782,51.2814692 C77.3492161,51.9444981 77.2168414,52.6629042 77.2168414,53.435939 L77.2168414,66.4316049 C77.2168414,67.513704 77.3871437,68.4087182 77.7270046,69.1158991 C78.0683528,69.82308 78.5019172,70.3925665 79.0284413,70.8236101 C79.5557091,71.2546537 80.1484205,71.5584796 80.808063,71.7350878 C81.4662181,71.9109476 82.1132181,72 82.7512939,72 C83.4979467,72 84.1947731,71.8510804 84.8432604,71.5524929 C85.491004,71.2546537 86.0569431,70.8565371 86.5395901,70.3596395 C87.0222372,69.8619937 87.4015131,69.2812822 87.6759303,68.6190016 C87.9503475,67.9559727 88.087928,67.2592685 88.087928,66.5296374 L88.087928,65.0718718 Z M95.2034401,71.8001933 L98.5633778,71.8001933 L98.5633778,48.19831 L95.2034401,48.19831 L95.2034401,71.8001933 Z M106.107248,71.8001933 L110.686075,71.8001933 C112.882156,71.8001933 114.48032,71.2494154 115.479824,70.1433694 C116.478583,69.0395685 116.979079,67.4478501 116.979079,65.369711 L116.979079,64.0436531 C116.979079,62.8066478 116.791672,61.8180911 116.419089,61.0772349 C116.045019,60.337127 115.463463,59.7788656 114.672933,59.4031992 C115.045516,59.182439 115.374965,58.944467 115.661281,58.6900315 C115.94611,58.4370927 116.187805,58.1437436 116.386367,57.8114808 C116.583442,57.4807147 116.731434,57.0945714 116.830343,56.6515544 C116.928509,56.2092856 116.979079,55.6689844 116.979079,55.026909 L116.979079,54.1655701 C116.979079,53.391787 116.87422,52.6464407 116.66599,51.9280347 C116.457017,51.2096286 116.110463,50.5750366 115.627816,50.0220137 C115.144425,49.469739 114.524941,49.0274703 113.766389,48.6959558 C113.008581,48.3644414 112.09237,48.19831 111.015524,48.19831 L106.107248,48.19831 L106.107248,71.8001933 Z M109.46793,60.8617131 L110.95008,60.8617131 C111.564358,60.8617131 112.058161,60.9395404 112.432231,61.0936984 C112.806301,61.2486047 113.097079,61.4746032 113.305309,61.7739391 C113.514282,62.0717782 113.651863,62.4422064 113.717307,62.8837267 C113.783494,63.3267438 113.816216,63.8453431 113.816216,64.4417698 C113.816216,65.017243 113.793162,65.5470674 113.750028,66.0334882 C113.706151,66.5191606 113.585675,66.9389791 113.387857,67.2921954 C113.189295,67.6461601 112.898517,67.9230457 112.514779,68.1213557 C112.130297,68.3211624 111.59708,68.4191949 110.917358,68.4191949 L109.46793,68.4191949 L109.46793,60.8617131 Z M109.46793,51.3809984 L110.851171,51.3809984 C111.97115,51.3809984 112.745319,51.646659 113.172934,52.1772318 C113.602036,52.7070562 113.816216,53.5032896 113.816216,54.5636868 C113.816216,55.6472826 113.623603,56.4697078 113.239865,57.0332076 C112.855384,57.5967073 112.103525,57.8788313 110.982802,57.8788313 L109.46793,57.8788313 L109.46793,51.3809984 Z M124.423297,71.8001933 L134.437666,71.8001933 L134.437666,68.4191949 L127.783234,68.4191949 L127.783234,48.19831 L124.423297,48.19831 L124.423297,71.8001933 Z M140.895023,71.8001933 L150.909392,71.8001933 L150.909392,68.4191949 L144.254961,68.4191949 L144.254961,61.4925634 L150.052675,61.4925634 L150.052675,58.309875 L144.254961,58.309875 L144.254961,51.3809984 L150.909392,51.3809984 L150.909392,48.19831 L140.895023,48.19831 L140.895023,71.8001933 Z M167.874921,71.8001933 L171.234859,71.8001933 L171.234859,48.19831 L167.874921,48.19831 L167.874921,71.8001933 Z M178.646355,71.8001933 L182.00778,71.8001933 L182.00778,57.6131708 L182.07248,57.6131708 L187.212783,71.8001933 L190.374158,71.8001933 L190.374158,48.19831 L187.014221,48.19831 L187.014221,62.4197562 L186.948777,62.4197562 L181.875405,48.19831 L178.646355,48.19831 L178.646355,71.8001933 Z M208.096751,71.8001933 L212.77523,71.8001933 C214.77275,71.8001933 216.30547,71.2763556 217.369674,70.2264351 C218.435364,69.1772629 218.967838,67.5466309 218.967838,65.336784 L218.967838,54.2980263 C218.967838,52.3755418 218.46288,50.8788625 217.452966,49.8057435 C216.442307,48.7348695 214.981723,48.19831 213.071958,48.19831 L208.096751,48.19831 L208.096751,71.8001933 Z M211.457433,51.3809984 L213.005027,51.3809984 C213.993375,51.3809984 214.67384,51.6354339 215.047167,52.1428081 C215.421237,52.6524274 215.6079,53.3700851 215.6079,54.2980263 L215.6079,65.6682985 C215.6079,66.6845437 215.410825,67.4313866 215.014445,67.9065823 C214.619552,68.3810296 213.948754,68.6190016 213.005027,68.6190016 L211.457433,68.6190016 L211.457433,51.3809984 Z M226.413543,71.8001933 L236.427169,71.8001933 L236.427169,68.4191949 L229.773481,68.4191949 L229.773481,61.4925634 L235.570452,61.4925634 L235.570452,58.309875 L229.773481,58.309875 L229.773481,51.3809984 L236.427169,51.3809984 L236.427169,48.19831 L226.413543,48.19831 L226.413543,71.8001933 Z M245.091762,71.8001933 L248.4517,71.8001933 L248.4517,51.3809984 L252.338905,51.3809984 L252.338905,48.19831 L241.204557,48.19831 L241.204557,51.3809984 L245.091762,51.3809984 L245.091762,71.8001933 Z M263.078361,63.547504 L259.718423,63.547504 L261.364927,54.9939821 L261.431114,54.9939821 L263.078361,63.547504 Z M254.776682,71.8001933 L258.13662,71.8001933 L259.124968,66.729444 L263.703794,66.729444 L264.692142,71.8001933 L268.05208,71.8001933 L262.814355,48.19831 L260.014407,48.19831 L254.776682,71.8001933 Z M274.081079,71.8001933 L277.441016,71.8001933 L277.441016,48.19831 L274.081079,48.19831 L274.081079,71.8001933 Z M284.984887,71.8001933 L295,71.8001933 L295,68.4191949 L288.345568,68.4191949 L288.345568,48.19831 L284.984887,48.19831 L284.984887,71.8001933 Z" id="Fill-19"></path>
                <path d="M113.917878,91.6679541 C113.917878,91.3369946 113.850646,91.013277 113.715444,90.6982498 C113.580242,90.3839469 113.385195,90.0993361 113.131783,89.8444176 C112.878371,89.5909475 112.573242,89.3859988 112.217874,89.2310199 C111.863244,89.0774894 111.471674,89 111.043164,89 C110.547421,89 110.113739,89.0847314 109.740639,89.2563669 C109.369756,89.4272782 109.062411,89.6568497 108.819342,89.9443573 C108.577012,90.2318648 108.393786,90.5736874 108.270405,90.9719976 C108.146285,91.3695836 108.084224,91.7896198 108.084224,92.231382 C108.084224,92.972239 108.2113,93.5878093 108.464712,94.0795413 C108.718863,94.5712734 109.216822,94.9666868 109.960805,95.2643331 L111.196098,95.762583 C111.408875,95.8502112 111.581018,95.9334943 111.711788,96.0109837 C111.840341,96.0884731 111.942297,96.1876886 112.015439,96.3086301 C112.08932,96.4310199 112.136604,96.590344 112.159507,96.7894991 C112.180933,96.98793 112.193493,97.2428485 112.193493,97.5520821 C112.193493,97.8171394 112.180933,98.0597465 112.159507,98.2806276 C112.136604,98.5029572 112.082671,98.686904 111.998447,98.8368135 C111.914222,98.9852746 111.790841,99.1025951 111.626825,99.1851539 C111.463547,99.2677127 111.235255,99.3089922 110.941946,99.3089922 C110.501615,99.3089922 110.189098,99.1851539 110.002917,98.9353048 C109.817476,98.686904 109.724386,98.4080869 109.724386,98.0988533 L109.724386,97.5687387 L108,97.5687387 L108,98.1980688 C108,98.5956548 108.075359,98.9664454 108.228293,99.3089922 C108.379749,99.6515389 108.585877,99.9470127 108.8452,100.195413 C109.104523,100.444538 109.414085,100.640797 109.775363,100.784188 C110.135903,100.92758 110.524518,101 110.941946,101 C111.493839,101 111.961506,100.910923 112.345688,100.734943 C112.728392,100.556789 113.035738,100.317079 113.266986,100.013639 C113.498233,99.709475 113.664466,99.3452022 113.764944,98.9193724 C113.8669,98.4942667 113.917878,98.0322269 113.917878,97.5361497 C113.917878,97.1045263 113.894975,96.7207001 113.850646,96.3832227 C113.805579,96.0464695 113.71766,95.7488232 113.58763,95.488111 C113.458338,95.2288473 113.275851,95.0021726 113.038693,94.8095353 C112.801534,94.6161738 112.491973,94.4474351 112.108529,94.3033193 L110.789751,93.7898612 C110.563675,93.7015088 110.38636,93.6131563 110.257068,93.5240797 C110.127776,93.4357272 110.028776,93.3343392 109.960805,93.2177429 C109.893573,93.1018709 109.851461,92.9642728 109.83373,92.8035003 C109.817476,92.643452 109.80861,92.4471937 109.80861,92.2147254 C109.80861,92.0155703 109.826341,91.8251056 109.859588,91.6433313 C109.893573,91.4608328 109.953417,91.3007846 110.037641,91.1624623 C110.121866,91.0248642 110.240076,90.9111648 110.39301,90.8220881 C110.544466,90.7337357 110.738773,90.6902836 110.976671,90.6902836 C111.415525,90.6902836 111.72878,90.8307785 111.914222,91.1124925 C112.100403,91.3942064 112.193493,91.7280628 112.193493,92.1162342 L112.193493,92.4971635 L113.917878,92.4971635 L113.917878,91.6679541 Z M117.451613,100.90006 L119.175998,100.90006 L119.175998,89.0984912 L117.451613,89.0984912 L117.451613,100.90006 Z M122.980876,100.90006 L124.706,100.90006 L124.706,93.8065178 L124.739247,93.8065178 L127.376803,100.90006 L129.00071,100.90006 L129.00071,89.0984912 L127.276325,89.0984912 L127.276325,96.2094146 L127.24234,96.2094146 L124.637291,89.0984912 L122.980876,89.0984912 L122.980876,100.90006 Z M138.232896,97.5361497 L136.508511,97.5361497 L136.508511,98.11551 C136.508511,98.3479783 136.474525,98.5406156 136.406555,98.6955944 C136.339323,98.8505733 136.251404,98.9715148 136.144277,99.0605914 C136.037149,99.1489439 135.918939,99.2126735 135.789647,99.2510561 C135.659616,99.2901629 135.538451,99.3089922 135.425413,99.3089922 C135.031627,99.3089922 134.757528,99.1923959 134.606072,98.9606518 C134.453138,98.7289077 134.37704,98.4421243 134.37704,98.0988533 L134.37704,92.0662643 C134.37704,91.6679541 134.447966,91.3391672 134.589079,91.0799034 C134.729453,90.8199155 135.013895,90.6902836 135.442406,90.6902836 C135.769699,90.6902836 136.028283,90.8112251 136.220374,91.0545564 C136.411726,91.2978877 136.508511,91.5853953 136.508511,91.9163549 L136.508511,92.4797827 L138.232896,92.4797827 L138.232896,91.8178636 C138.232896,91.4079662 138.162709,91.0299336 138.021596,90.6823174 C137.879744,90.3339771 137.686176,90.0356065 137.437935,89.7864816 C137.190433,89.5380809 136.897125,89.3447194 136.559489,89.2071213 C136.220374,89.068799 135.853924,89 135.460137,89 C135.04197,89 134.662221,89.068799 134.317935,89.2071213 C133.974388,89.3447194 133.678125,89.5359083 133.429884,89.7792396 C133.182382,90.0218467 132.990291,90.3086301 132.855089,90.641038 C132.719886,90.9719976 132.652655,91.3319252 132.652655,91.717924 L132.652655,98.2154496 C132.652655,98.7564273 132.740573,99.2039831 132.914933,99.5573929 C133.089292,99.9108027 133.311674,100.195413 133.582818,100.410501 C133.853223,100.626313 134.157613,100.779119 134.49525,100.867471 C134.834364,100.9551 135.166829,101 135.494123,101 C135.876827,101 136.234412,100.925407 136.566877,100.776222 C136.898603,100.626313 137.190433,100.427882 137.437935,100.179481 C137.686176,99.9303561 137.879744,99.6399517 138.021596,99.3089922 C138.162709,98.9773084 138.232896,98.628968 138.232896,98.2646952 L138.232896,97.5361497 Z M141.833862,100.90006 L146.974511,100.90006 L146.974511,99.2097767 L143.558987,99.2097767 L143.558987,95.7452022 L146.534918,95.7452022 L146.534918,94.1548582 L143.558987,94.1548582 L143.558987,90.6902836 L146.974511,90.6902836 L146.974511,89.0984912 L141.833862,89.0984912 L141.833862,100.90006 Z M157.44125,100.90006 L159.165636,100.90006 L159.165636,89.0984912 L157.44125,89.0984912 L155.716126,90.3426675 L155.716126,92.1321666 L157.44125,90.8887145 L157.44125,100.90006 Z M167.29847,93.2430899 C167.29847,93.4741098 167.214246,93.6703681 167.045058,93.8311406 C166.876609,93.9911889 166.679346,94.0715751 166.45327,94.0715751 C166.227933,94.0715751 166.03067,93.9911889 165.862221,93.8311406 C165.693033,93.6703681 165.608809,93.4741098 165.608809,93.2430899 L165.608809,91.5180447 C165.608809,91.2870247 165.693033,91.0907664 165.862221,90.929994 C166.03067,90.7699457 166.227933,90.6902836 166.45327,90.6902836 C166.679346,90.6902836 166.876609,90.7699457 167.045058,90.929994 C167.214246,91.0907664 167.29847,91.2870247 167.29847,91.5180447 L167.29847,93.2430899 Z M163.899938,93.0765238 C163.911021,93.3205794 163.945745,93.5356669 164.001894,93.7232348 C164.058044,93.9115269 164.145963,94.0795413 164.264172,94.2287266 C164.381643,94.3771877 164.543443,94.5350634 164.745877,94.7009053 C164.543443,94.8558841 164.381643,95.010863 164.264172,95.1651177 C164.145963,95.3193724 164.058044,95.5018709 164.001894,95.7126132 C163.945745,95.9226313 163.911021,96.1789982 163.899938,96.4831623 C163.889595,96.7866023 163.883685,97.1595655 163.883685,97.6013277 C163.883685,97.9663247 163.891812,98.2683162 163.908804,98.5044056 C163.926536,98.7426675 163.950916,98.950513 163.984902,99.1264937 C164.018887,99.3039228 164.06691,99.4523838 164.128231,99.5740495 C164.190291,99.6949909 164.26565,99.8224502 164.357263,99.9557031 C164.548615,100.243211 164.81902,100.48799 165.169216,100.692939 C165.517935,100.897888 165.946446,101 166.45327,101 C166.960834,101 167.389344,100.897888 167.738063,100.692939 C168.08826,100.48799 168.358664,100.243211 168.550017,99.9557031 C168.640152,99.8224502 168.716988,99.6949909 168.778309,99.5740495 C168.840369,99.4523838 168.888392,99.3039228 168.923116,99.1264937 C168.956363,98.950513 168.981482,98.7426675 168.998475,98.5044056 C169.016206,98.2683162 169.023595,97.9663247 169.023595,97.6013277 C169.023595,97.1595655 169.018423,96.7866023 169.007341,96.4831623 C168.99552,96.1789982 168.961534,95.9226313 168.905385,95.7126132 C168.849235,95.5018709 168.761317,95.3193724 168.643107,95.1651177 C168.525636,95.010863 168.363836,94.8558841 168.161402,94.7009053 C168.363836,94.5350634 168.525636,94.3771877 168.643107,94.2287266 C168.761317,94.0795413 168.849235,93.9115269 168.905385,93.7232348 C168.961534,93.5356669 168.99552,93.3205794 169.007341,93.0765238 C169.018423,92.8339167 169.023595,92.534822 169.023595,92.1814122 C169.023595,91.8613156 169.012512,91.5882921 168.990348,91.3616174 C168.967445,91.1349427 168.930504,90.9386844 168.880265,90.7735667 C168.829287,90.6070006 168.764272,90.4585395 168.685219,90.3252867 C168.606166,90.192758 168.510121,90.0544357 168.39856,89.9117683 C168.172484,89.6242607 167.890997,89.3997586 167.55336,89.2397103 C167.214246,89.079662 166.848534,89 166.45327,89 C166.058745,89 165.693033,89.079662 165.353919,89.2397103 C165.016282,89.3997586 164.734795,89.6242607 164.508719,89.9117683 C164.395681,90.0544357 164.300374,90.192758 164.221321,90.3252867 C164.142269,90.4585395 164.077992,90.6070006 164.027014,90.7735667 C163.976036,90.9386844 163.940573,91.1349427 163.91767,91.3616174 C163.894767,91.5882921 163.883685,91.8613156 163.883685,92.1814122 C163.883685,92.534822 163.889595,92.8339167 163.899938,93.0765238 Z M167.29847,98.4805069 C167.29847,98.7129753 167.214246,98.9092336 167.045058,99.0685576 C166.876609,99.2286059 166.679346,99.3089922 166.45327,99.3089922 C166.227933,99.3089922 166.03067,99.2286059 165.862221,99.0685576 C165.693033,98.9092336 165.608809,98.7129753 165.608809,98.4805069 L165.608809,96.1594448 C165.608809,95.9277007 165.693033,95.7314424 165.862221,95.5713941 C166.03067,95.4106216 166.227933,95.3316838 166.45327,95.3316838 C166.679346,95.3316838 166.876609,95.4106216 167.045058,95.5713941 C167.214246,95.7314424 167.29847,95.9277007 167.29847,96.1594448 L167.29847,98.4805069 Z M174.417656,95.5627037 C174.699143,95.5627037 174.927435,95.5764635 175.102534,95.6047073 C175.276893,95.6322269 175.41579,95.6872661 175.516268,95.769825 C175.618224,95.8523838 175.688411,95.9660833 175.728307,96.1101992 C175.767464,96.2535908 175.786673,96.4418829 175.786673,96.6743512 L175.786673,98.3646349 C175.786673,98.6514182 175.711314,98.8802655 175.559858,99.0526252 C175.406924,99.2235365 175.201534,99.3089922 174.941473,99.3089922 C174.682889,99.3089922 174.476761,99.2235365 174.324565,99.0526252 C174.173109,98.8802655 174.097012,98.6630054 174.097012,98.3972239 L174.097012,97.5187689 L172.371887,97.5187689 L172.371887,98.4805069 C172.371887,98.9439952 172.453157,99.3365118 172.617173,99.6573325 C172.78045,99.9781533 172.985839,100.236693 173.23408,100.435848 C173.482321,100.634279 173.757897,100.779119 174.062287,100.867471 C174.366678,100.9551 174.654075,101 174.925219,101 C175.454947,101 175.888629,100.897888 176.226266,100.692939 C176.56538,100.48799 176.841695,100.231623 177.055951,99.9223899 C177.146086,99.7898612 177.218489,99.6624019 177.275378,99.5407363 C177.332266,99.4197948 177.376595,99.2727821 177.41058,99.1025951 C177.444565,98.9302354 177.469685,98.7180447 177.486678,98.4631261 C177.50367,98.209656 177.511797,97.8888352 177.511797,97.5021123 C177.511797,97.0828002 177.505887,96.7373567 177.495543,96.4657815 C177.483722,96.1949306 177.444565,95.9639107 177.376595,95.769825 C177.309363,95.5764635 177.205191,95.4077248 177.064816,95.2643331 C176.922965,95.1216657 176.716836,94.9666868 176.446431,94.8008449 C176.693933,94.6574532 176.888979,94.5249246 177.030092,94.4025347 C177.170466,94.280869 177.277594,94.1353048 177.351475,93.9636693 C177.424618,93.792758 177.469685,93.5791189 177.486678,93.3256488 C177.50367,93.0707302 177.511797,92.7397707 177.511797,92.3313217 C177.511797,91.9554617 177.49776,91.6375377 177.469685,91.378274 C177.440871,91.1182861 177.402453,90.8974049 177.351475,90.7149065 C177.300497,90.532408 177.233265,90.3723597 177.149041,90.2340374 C177.064816,90.0964393 176.965077,89.9602897 176.852778,89.827761 C176.693933,89.6409173 176.460469,89.4547978 176.150907,89.2722993 C175.840606,89.0898008 175.449036,89 174.976197,89 C174.614179,89 174.276543,89.0659022 173.961809,89.1984309 C173.645598,89.3309596 173.369283,89.5083887 173.132124,89.7292698 C172.896443,89.9494267 172.710263,90.2152082 172.57506,90.5237176 C172.439119,90.8336753 172.371887,91.1595655 172.371887,91.5021123 L172.371887,92.4797827 L174.097012,92.4797827 L174.097012,91.5180447 C174.097012,91.342064 174.160549,91.1595655 174.29058,90.9719976 C174.420611,90.7837055 174.637083,90.6902836 174.941473,90.6902836 C175.201534,90.6902836 175.406924,90.7677731 175.559858,90.9220278 C175.711314,91.0770066 175.786673,91.2761617 175.786673,91.5180447 L175.786673,93.0432106 C175.786673,93.485697 175.688411,93.7666868 175.491148,93.8890766 C175.294625,94.0100181 174.935562,94.0715751 174.417656,94.0715751 L174.417656,95.5627037 Z M181.249444,100.90006 L183.075785,100.90006 L186,90.7894991 L186,89.0984912 L180.86009,89.0984912 L180.86009,92.0488835 L182.381302,92.0488835 L182.381302,90.6902836 L184.274876,90.6902836 L181.249444,100.90006 Z" id="Fill-21"></path>
            </g>
        </g>
    </g>
</svg>